# xmcd
#
# Track frame offsets:
#	150
#	12964
#	28219
#	42441
#	56546
#	70638
#	85331
#	100900
#	113203
#	126880
#	140886
#	158030
#
# Disc length: 2344 seconds
# Revision: 0
# Processed by: cddbd v1.5.2PL0 Copyright (c) Steve Scherf et al.
# Submitted via: dBpowerAMP V12.0
#
DISCID=a409260c
DTITLE=Yoan - Depuis Longtemps
DYEAR=2018
DGENRE=Country
TTITLE0=Tu m'aimeras
TTITLE1=Reviens-moi
TTITLE2=Novembre
TTITLE3=Depuis longtemps
TTITLE4=La blonde
TTITLE5=Sous peine d'amour
TTITLE6=Annecy
TTITLE7=Jenny
TTITLE8=Karma
TTITLE9=Rock'n'roll
TTITLE10=Je t'aime évidemment
TTITLE11=Sans fin
EXTD=
EXTT0=
EXTT1=
EXTT2=
EXTT3=
EXTT4=
EXTT5=
EXTT6=
EXTT7=
EXTT8=
EXTT9=
EXTT10=
EXTT11=
PLAYORDER=
